<svg width="2560" height="1440" viewBox="0 0 2560 1440" fill="none" xmlns="http://www.w3.org/2000/svg">
<rect width="2560" height="1440" fill="url(#paint0_linear_5_13)"/>
<path d="M1089.74 760.28L1066.47 737.01C1063.71 734.18 1062 730.18 1062 726.27C1062 724.46 1063.02 721.63 1063.79 720.01L1085.27 675.27L1089.74 760.28Z" fill="#01579B"/>
<path d="M1169.39 679.74L1146.12 656.47C1144.09 654.43 1139.86 652 1136.28 652C1133.2 652 1130.18 652.62 1128.23 653.79L1085.28 675.27L1169.39 679.74Z" fill="#40C4FF"/>
<path d="M1117.48 788.02H1173.86V763.86L1131.8 750.43L1093.32 763.86L1117.48 788.02Z" fill="#40C4FF"/>
<path d="M1085.27 747.75C1085.27 754.93 1086.17 756.69 1089.74 760.28L1093.32 763.86H1173.86L1134.49 719.12L1085.27 675.27V747.75Z" fill="#29B6F6"/>
<path d="M1156.86 675.26H1085.27L1173.86 763.85H1198.02V708.37L1169.38 679.73C1165.36 675.7 1161.79 675.26 1156.86 675.26Z" fill="#01579B"/>
<path opacity="0.2" d="M1090.64 761.17C1087.06 757.58 1086.17 754.04 1086.17 747.75V676.16L1085.28 675.27V747.75C1085.27 754.04 1085.27 755.78 1090.64 761.17Z" fill="white"/>
<path opacity="0.2" d="M1197.13 707.48V762.96H1172.97L1173.86 763.86H1198.02V708.37L1197.13 707.48Z" fill="#263238"/>
<path opacity="0.2" d="M1169.39 679.74C1164.95 675.3 1161.32 675.27 1155.97 675.27H1085.28L1086.17 676.16H1155.97C1158.64 676.16 1165.38 675.71 1169.39 679.74Z" fill="white"/>
<path opacity="0.2" d="M1197.13 707.48L1169.39 679.74L1146.12 656.47C1144.09 654.43 1139.86 652 1136.28 652C1133.2 652 1130.18 652.62 1128.23 653.79L1085.28 675.27L1063.8 720.01C1063.03 721.64 1062.01 724.47 1062.01 726.27C1062.01 730.18 1063.73 734.17 1066.48 737.01L1087.92 758.3C1088.43 758.93 1089.03 759.57 1089.74 760.28L1090.63 761.17L1093.31 763.85L1116.58 787.12L1117.47 788.01H1172.95H1173.84V763.85H1198V763.79V708.37L1197.13 707.48Z" fill="url(#paint1_radial_5_13)"/>
<path d="M1267.02 673.325H1294.57C1303.92 673.325 1312.08 675.255 1319.06 679.125C1326.03 682.995 1331.39 688.375 1335.13 695.255C1338.87 702.145 1340.74 710.045 1340.74 718.975C1340.74 727.905 1338.87 735.805 1335.13 742.695C1331.39 749.585 1326.03 754.955 1319.06 758.825C1312.09 762.695 1303.93 764.625 1294.57 764.625H1267.02V673.325ZM1294.57 754.315C1305.37 754.315 1313.93 751.215 1320.27 745.005C1326.6 738.795 1329.77 730.125 1329.77 718.985C1329.77 707.845 1326.6 699.175 1320.27 692.965C1313.94 686.755 1305.37 683.655 1294.57 683.655H1277.74V754.305H1294.57V754.315Z" fill="white"/>
<path d="M1357.44 763.875C1353.7 762.005 1350.81 759.435 1348.77 756.155C1346.73 752.885 1345.71 749.165 1345.71 744.995C1345.71 738.105 1348.3 732.735 1353.49 728.865C1358.67 724.995 1365.22 723.065 1373.13 723.065C1377.04 723.065 1380.67 723.495 1384.03 724.345C1387.39 725.195 1389.96 726.175 1391.75 727.275V723.325C1391.75 718.475 1390.05 714.585 1386.65 711.655C1383.25 708.725 1378.95 707.255 1373.77 707.255C1370.11 707.255 1366.76 708.045 1363.69 709.615C1360.63 711.185 1358.21 713.375 1356.42 716.185L1348.26 710.065C1350.81 706.155 1354.32 703.095 1358.78 700.885C1363.24 698.675 1368.2 697.565 1373.64 697.565C1382.48 697.565 1389.43 699.885 1394.49 704.515C1399.55 709.155 1402.08 715.465 1402.08 723.455V764.645H1391.74V755.335H1391.23C1389.36 758.485 1386.55 761.155 1382.81 763.365C1379.07 765.575 1374.86 766.685 1370.18 766.685C1365.43 766.685 1361.18 765.745 1357.44 763.875ZM1381.41 754.315C1384.55 752.445 1387.06 749.935 1388.93 746.795C1390.8 743.655 1391.74 740.205 1391.74 736.465C1389.7 735.105 1387.19 733.995 1384.22 733.145C1381.24 732.295 1378.1 731.865 1374.78 731.865C1368.83 731.865 1364.34 733.095 1361.33 735.565C1358.31 738.035 1356.8 741.225 1356.8 745.125C1356.8 748.695 1358.16 751.585 1360.88 753.795C1363.6 756.005 1367.04 757.115 1371.21 757.115C1374.87 757.115 1378.27 756.185 1381.41 754.315Z" fill="white"/>
<path d="M1413.51 700.625H1423.84V710.955H1424.35C1425.88 707.125 1428.47 704.155 1432.13 702.025C1435.78 699.905 1439.78 698.835 1444.12 698.835C1445.99 698.835 1447.56 698.965 1448.84 699.215V710.315C1447.39 709.975 1445.44 709.805 1442.97 709.805C1437.44 709.805 1432.96 711.635 1429.52 715.285C1426.08 718.945 1424.35 723.705 1424.35 729.565V765.655H1413.51V700.625ZM1480.83 765.385C1478.58 764.525 1476.69 763.355 1475.15 761.875C1473.45 760.235 1472.17 758.325 1471.32 756.165C1470.47 754.005 1470.04 751.365 1470.04 748.245V709.425H1458.69V699.605H1470.04V681.245H1480.88V699.605H1496.69V709.425H1480.88V745.665C1480.88 749.315 1481.56 752.005 1482.92 753.745C1484.53 755.655 1486.87 756.615 1489.93 756.615C1492.39 756.615 1494.78 755.895 1497.07 754.445V765.035C1495.79 765.625 1494.5 766.055 1493.18 766.315C1491.86 766.575 1490.18 766.695 1488.14 766.695C1485.53 766.685 1483.09 766.245 1480.83 765.385Z" fill="white"/>
<defs>
<linearGradient id="paint0_linear_5_13" x1="1280" y1="0" x2="1280" y2="1440" gradientUnits="userSpaceOnUse">
<stop stop-color="#1C2834"/>
<stop offset="1" stop-color="#0D1520"/>
</linearGradient>
<radialGradient id="paint1_radial_5_13" cx="0" cy="0" r="1" gradientUnits="userSpaceOnUse" gradientTransform="translate(1130.01 720.007) scale(68 68)">
<stop stop-color="white" stop-opacity="0.1"/>
<stop offset="1" stop-color="white" stop-opacity="0"/>
</radialGradient>
</defs>
</svg>
